# xmcd
#
# Track frame offsets:
#	150
#	15404
#	33247
#	54335
#	71146
#	83906
#	98342
#	108712
#	123719
#	136883
#	154182
#	169125
#	182752
#	195991
#	214664
#	227426
#	243865
#	259248
#	271843
#	285736
#
# Disc length: 3964 seconds
#
# Revision: 1
# Processed by: cddbd v1.5.1PL0 Copyright (c) Steve Scherf et al.
# Submitted via: audiograbber 1.83.01
#
DISCID=0d0f7a14
DTITLE=Goiano and Paranaense - Dose Dupla
DYEAR=2000
DGENRE=Sertanejo
TTITLE0=Fugindo Da Solidão
TTITLE1=A Vida De Um Boiadeiro
TTITLE2=Vale De Lágrimas
TTITLE3=A Sereia E O Negro D'Água
TTITLE4=A Voz Do Cantador
TTITLE5=O Vôo Da Andorinha
TTITLE6=Peão Caminhoneiro
TTITLE7=Explosão De Amor
TTITLE8=Sede De Mudança
TTITLE9=Lamento De Um Peão
TTITLE10=A Viola E A Saudade
TTITLE11=Marcas De Um Amor
TTITLE12=Grito De Liberdade
TTITLE13=Colar De Paixões
TTITLE14=Renascer
TTITLE15=O Doutor E O Caipira
TTITLE16=Voltei Porque Te Amo
TTITLE17=Mistérios Do Amor
TTITLE18=Amor Amigo
TTITLE19=O Caipira Lavrador
EXTD=
EXTT0=The Best off Brazilian Country
EXTT1=The Best off Brazilian Country
EXTT2=The Best off Brazilian Country
EXTT3=The Best off Brazilian Country
EXTT4=The Best off Brazilian Country
EXTT5=The Best off Brazilian Country
EXTT6=The Best off Brazilian Country
EXTT7=The Best off Brazilian Country
EXTT8=The Best off Brazilian Country
EXTT9=The Best off Brazilian Country
EXTT10=The Best off Brazilian Country
EXTT11=The Best off Brazilian Country
EXTT12=The Best off Brazilian Country
EXTT13=The Best off Brazilian Country
EXTT14=The Best off Brazilian Country
EXTT15=The Best off Brazilian Country
EXTT16=The Best off Brazilian Country
EXTT17=The Best off Brazilian Country
EXTT18=The Best off Brazilian Country
EXTT19=The Best off Brazilian Country
PLAYORDER=
